<svg version="1.1" xmlns="http://www.w3.org/2000/svg" xmlns:xlink="http://www.w3.org/1999/xlink" width="354.44174" height="354.44174" viewBox="0,0,354.44174,354.44174"><defs><radialGradient cx="390.64108" cy="173.6591" r="152.25" gradientUnits="userSpaceOnUse" id="color-1"><stop offset="0" stop-color="#38ffe7"/><stop offset="1" stop-color="#38ffe7" stop-opacity="0"/></radialGradient><radialGradient cx="89.23992" cy="182.08382" r="152.25" gradientUnits="userSpaceOnUse" id="color-2"><stop offset="0" stop-color="#38ffe7"/><stop offset="1" stop-color="#38ffe7" stop-opacity="0"/></radialGradient></defs><g transform="translate(-62.74882,-2.80944)"><g data-paper-data="{&quot;isPaintingLayer&quot;:true}" fill="none" fill-rule="nonzero" stroke-width="50" stroke-linecap="butt" stroke-linejoin="miter" stroke-miterlimit="10" stroke-dasharray="" stroke-dashoffset="0" style="mix-blend-mode: normal"><path d="M87.80944,184.254c-2.34942,-84.05253 63.88403,-154.09514 147.93655,-156.44456c84.05253,-2.34942 154.09514,63.88403 156.44456,147.93655c2.34942,84.05253 -63.88403,154.09514 -147.93655,156.44456c-84.05253,2.34942 -154.09514,-63.88403 -156.44456,-147.93655z" data-paper-data="{&quot;index&quot;:null}" stroke="url(#color-1)"/><path d="M244.254,332.19056c-84.05253,2.34942 -154.09514,-63.88403 -156.44456,-147.93655c-2.34942,-84.05253 63.88403,-154.09514 147.93655,-156.44456c84.05253,-2.34942 154.09514,63.88403 156.44456,147.93655c2.34942,84.05253 -63.88403,154.09514 -147.93655,156.44456z" data-paper-data="{&quot;index&quot;:null}" stroke="url(#color-2)"/></g></g></svg>