<svg version="1.1" xmlns="http://www.w3.org/2000/svg" xmlns:xlink="http://www.w3.org/1999/xlink" width="166.81086" height="166.81086" viewBox="0,0,166.81086,166.81086"><defs><linearGradient x1="240.09834" y1="184.97829" x2="240.09834" y2="209.20658" gradientUnits="userSpaceOnUse" id="color-1"><stop offset="0" stop-color="#ffffff"/><stop offset="1" stop-color="#00e2cc"/></linearGradient><radialGradient cx="239.59413" cy="146.23717" r="8.72735" gradientUnits="userSpaceOnUse" id="color-2"><stop offset="0" stop-color="#4eebdc"/><stop offset="1" stop-color="#4eebdc" stop-opacity="0"/></radialGradient><radialGradient cx="239.00832" cy="109.78875" r="70.90543" gradientUnits="userSpaceOnUse" id="color-3"><stop offset="0" stop-color="#38ffe7"/><stop offset="1" stop-color="#38ffe7" stop-opacity="0"/></radialGradient></defs><g transform="translate(-156.59457,-96.59457)"><g data-paper-data="{&quot;isPaintingLayer&quot;:true}" fill-rule="nonzero" stroke-linecap="butt" stroke-linejoin="miter" stroke-miterlimit="10" stroke-dasharray="" stroke-dashoffset="0" style="mix-blend-mode: normal"><path d="M238.57831,150.19485l1.61969,-0.01216l1.50736,5.97527v34.10837h-4.34458v-34.10837z" data-paper-data="{&quot;index&quot;:null}" fill="#b1b1b1" stroke="#000000" stroke-width="0.5"/><path d="M239.53909,172.43156c8.94088,0 30.1639,49.24288 30.1639,49.24288l-59.40599,0.81573c0,0 21.58113,-50.05861 29.24209,-50.05861z" fill="#b1b1b1" stroke="#000000" stroke-width="2"/><path d="M261.54528,208.96112l-3.8064,0.24546c0,0 -10.2081,-17.11528 -17.52117,-17.16734c-7.23147,-0.05147 -17.63189,16.72642 -17.63189,16.72642l-3.93442,-0.10988c0,0 9.77176,-23.76158 21.61658,-23.67726c11.84482,0.08432 21.2773,23.9826 21.2773,23.9826z" fill="url(#color-1)" stroke="#000000" stroke-width="0"/><path d="M230.86678,146.23717c0,-4.81999 3.90736,-8.72735 8.72735,-8.72735c4.81999,0 8.72735,3.90736 8.72735,8.72735c0,4.81999 -3.90736,8.72735 -8.72735,8.72735c-4.81999,0 -8.72735,-3.90736 -8.72735,-8.72735z" fill="url(#color-2)" stroke="#000000" stroke-width="0"/><path d="M240,250.90543c-39.15999,0 -70.90543,-31.74544 -70.90543,-70.90543c0,-39.15999 31.74544,-70.90543 70.90543,-70.90543c39.15999,0 70.90543,31.74544 70.90543,70.90543c0,39.15999 -31.74544,70.90543 -70.90543,70.90543z" data-paper-data="{&quot;index&quot;:null}" fill="none" stroke="url(#color-3)" stroke-width="25"/></g></g></svg>