<svg version="1.1" xmlns="http://www.w3.org/2000/svg" xmlns:xlink="http://www.w3.org/1999/xlink" width="60.58154" height="64.34654" viewBox="0,0,60.58154,64.34654"><g transform="translate(-208.76008,-163.3458)"><g data-paper-data="{&quot;isPaintingLayer&quot;:true}" fill-rule="nonzero" stroke-linecap="butt" stroke-linejoin="miter" stroke-miterlimit="10" stroke-dasharray="" stroke-dashoffset="0" style="mix-blend-mode: normal"><path d="M222.76647,226.51781c-10.88283,-6.898 -16.84904,-9.23011 -10.24651,-21.79485c2.74792,-5.22934 -1.95504,-30.0899 1.221,-33.51839c4.83249,-5.21661 18.00462,-1.88488 26.53699,-5.91393c13.6755,-6.45766 30.02857,22.20369 27.87057,24.93249c-0.07242,0.09158 -3.26162,10.92605 -2.87076,19.37157c4.57475,12.62194 -5.42202,14.46228 -8.49618,12.51374c0,0 -17.81026,9.70457 -21.25176,-0.83487c-0.65541,-2.00714 -12.76334,5.24425 -12.76334,5.24425z" fill="#7d7d7d" stroke="#000000" stroke-width="2"/><path d="M230.13641,177.00695c0,1.11325 -0.84606,2.01571 -1.88973,2.01571c-1.04367,0 -1.88972,-0.90247 -1.88972,-2.01571c0,-1.11325 0.84606,-2.0157 1.88972,-2.0157c1.04367,0 1.88973,0.90246 1.88973,2.0157z" fill="#676767" stroke="none" stroke-width="0"/><path d="M241.93943,182.25051c0,1.74409 -1.3255,3.15794 -2.96058,3.15794c-1.63509,0 -2.96057,-1.41386 -2.96057,-3.15794c0,-1.74409 1.32548,-3.15794 2.96057,-3.15794c1.63509,0 2.96058,1.41386 2.96058,3.15794z" fill="#676767" stroke="none" stroke-width="0"/><path d="M242.65605,192.92809c0,1.11325 -0.84606,2.01571 -1.88973,2.01571c-1.04367,0 -1.88972,-0.90247 -1.88972,-2.01571c0,-1.11325 0.84606,-2.0157 1.88972,-2.0157c1.04367,0 1.88973,0.90246 1.88973,2.0157z" fill="#676767" stroke="none" stroke-width="0"/><path d="M238.9633,208.71213c0,1.78119 -1.35369,3.22514 -3.02356,3.22514c-1.66987,0 -3.02356,-1.44395 -3.02356,-3.22514c0,-1.78119 1.35369,-3.22512 3.02356,-3.22512c1.66987,0 3.02356,1.44393 3.02356,3.22512z" fill="#676767" stroke="none" stroke-width="0"/><path d="M263.0968,192.34561c0,2.85269 -2.16803,5.16526 -4.84244,5.16526c-2.67441,0 -4.84242,-2.31257 -4.84242,-5.16526c0,-2.85269 2.16802,-5.16524 4.84242,-5.16524c2.6744,0 4.84244,2.31256 4.84244,5.16524z" fill="#676767" stroke="none" stroke-width="0"/><path d="M239.47539,173.81073c0,1.70466 -1.29553,3.08656 -2.89365,3.08656c-1.59812,0 -2.89364,-1.3819 -2.89364,-3.08656c0,-1.70466 1.29552,-3.08655 2.89364,-3.08655c1.59812,0 2.89365,1.38189 2.89365,3.08655z" fill="#676767" stroke="none" stroke-width="0"/><path d="M222.11362,190.21209c0,1.39156 -1.05758,2.51963 -2.36217,2.51963c-1.30459,0 -2.36216,-1.12808 -2.36216,-2.51963c0,-1.39156 1.05757,-2.51963 2.36216,-2.51963c1.30459,0 2.36217,1.12807 2.36217,2.51963z" fill="#676767" stroke="none" stroke-width="0"/><path d="M254.01074,182.05118c0,2.2636 -1.72033,4.09861 -3.84246,4.09861c-2.12213,0 -3.84244,-1.83501 -3.84244,-4.09861c0,-2.2636 1.72031,-4.0986 3.84244,-4.0986c2.12213,0 3.84246,1.835 3.84246,4.0986z" fill="#676767" stroke="none" stroke-width="0"/><path d="M238.97962,194.91245c0,3.97057 -3.01761,7.18937 -6.74004,7.18937c-3.72242,0 -6.74002,-3.21879 -6.74002,-7.18937c0,-3.97057 3.0176,-7.18935 6.74002,-7.18935c3.72242,0 6.74004,3.21877 6.74004,7.18935z" fill="#676767" stroke="none" stroke-width="0"/><path d="M258.97146,202.64205c0,2.33782 -1.77673,4.23299 -3.96843,4.23299c-2.19171,0 -3.96842,-1.89517 -3.96842,-4.23299c0,-2.33782 1.77671,-4.23298 3.96842,-4.23298c2.19171,0 3.96843,1.89516 3.96843,4.23298z" fill="#676767" stroke="none" stroke-width="0"/></g></g></svg>