<svg version="1.1" xmlns="http://www.w3.org/2000/svg" xmlns:xlink="http://www.w3.org/1999/xlink" width="65.80921" height="55.97293" viewBox="0,0,65.80921,55.97293"><g transform="translate(-203.53241,-163.3458)"><g data-paper-data="{&quot;isPaintingLayer&quot;:true}" fill-rule="nonzero" stroke-linecap="butt" stroke-linejoin="miter" stroke-miterlimit="10" stroke-dasharray="" stroke-dashoffset="0" style="mix-blend-mode: normal"><path d="M240.27794,216.69122c-50.94505,7.58991 -34.4865,-13.13555 -27.88397,-25.70029c2.74792,-5.22934 -1.82906,-16.35788 1.34698,-19.78637c4.83249,-5.21661 18.00462,-1.88488 26.53699,-5.91393c13.6755,-6.45766 30.02857,22.20369 27.87057,24.93249c-0.07242,0.09158 -5.27733,7.39856 -4.88647,15.84408c4.57475,12.62194 -19.90993,12.57255 -22.98409,10.62401z" fill="#7d7d7d" stroke="#000000" stroke-width="2"/><path d="M230.1364,177.00694c0,1.11325 -0.84606,2.01571 -1.88973,2.01571c-1.04367,0 -1.88972,-0.90247 -1.88972,-2.01571c0,-1.11325 0.84606,-2.0157 1.88972,-2.0157c1.04367,0 1.88973,0.90246 1.88973,2.0157z" fill="#676767" stroke="none" stroke-width="0"/><path d="M241.93942,182.2505c0,1.74409 -1.3255,3.15794 -2.96058,3.15794c-1.63509,0 -2.96057,-1.41386 -2.96057,-3.15794c0,-1.74409 1.32548,-3.15794 2.96057,-3.15794c1.63509,0 2.96058,1.41386 2.96058,3.15794z" fill="#676767" stroke="none" stroke-width="0"/><path d="M242.65604,192.92808c0,1.11325 -0.84606,2.01571 -1.88973,2.01571c-1.04367,0 -1.88972,-0.90247 -1.88972,-2.01571c0,-1.11325 0.84606,-2.0157 1.88972,-2.0157c1.04367,0 1.88973,0.90246 1.88973,2.0157z" fill="#676767" stroke="none" stroke-width="0"/><path d="M238.96329,208.71212c0,1.78119 -1.35369,3.22514 -3.02356,3.22514c-1.66987,0 -3.02356,-1.44395 -3.02356,-3.22514c0,-1.78119 1.35369,-3.22512 3.02356,-3.22512c1.66987,0 3.02356,1.44393 3.02356,3.22512z" fill="#676767" stroke="none" stroke-width="0"/><path d="M263.09679,192.3456c0,2.85269 -2.16803,5.16526 -4.84244,5.16526c-2.67441,0 -4.84242,-2.31257 -4.84242,-5.16526c0,-2.85269 2.16802,-5.16524 4.84242,-5.16524c2.6744,0 4.84244,2.31256 4.84244,5.16524z" fill="#676767" stroke="none" stroke-width="0"/><path d="M239.47538,173.81072c0,1.70466 -1.29553,3.08656 -2.89365,3.08656c-1.59812,0 -2.89364,-1.3819 -2.89364,-3.08656c0,-1.70466 1.29552,-3.08655 2.89364,-3.08655c1.59812,0 2.89365,1.38189 2.89365,3.08655z" fill="#676767" stroke="none" stroke-width="0"/><path d="M222.11361,190.21208c0,1.39156 -1.05758,2.51963 -2.36217,2.51963c-1.30459,0 -2.36216,-1.12808 -2.36216,-2.51963c0,-1.39156 1.05757,-2.51963 2.36216,-2.51963c1.30459,0 2.36217,1.12807 2.36217,2.51963z" fill="#676767" stroke="none" stroke-width="0"/><path d="M254.01073,182.05117c0,2.2636 -1.72033,4.09861 -3.84246,4.09861c-2.12213,0 -3.84244,-1.83501 -3.84244,-4.09861c0,-2.2636 1.72031,-4.0986 3.84244,-4.0986c2.12213,0 3.84246,1.835 3.84246,4.0986z" fill="#676767" stroke="none" stroke-width="0"/><path d="M238.97961,194.91244c0,3.97057 -3.01761,7.18937 -6.74004,7.18937c-3.72242,0 -6.74002,-3.21879 -6.74002,-7.18937c0,-3.97057 3.0176,-7.18935 6.74002,-7.18935c3.72242,0 6.74004,3.21877 6.74004,7.18935z" fill="#676767" stroke="none" stroke-width="0"/><path d="M258.97145,202.64204c0,2.33782 -1.77673,4.23299 -3.96843,4.23299c-2.19171,0 -3.96842,-1.89517 -3.96842,-4.23299c0,-2.33782 1.77671,-4.23298 3.96842,-4.23298c2.19171,0 3.96843,1.89516 3.96843,4.23298z" fill="#676767" stroke="none" stroke-width="0"/></g></g></svg>