<?xml version="1.0" encoding="UTF-8" standalone="no"?>
<svg
   xmlns:osb="http://www.openswatchbook.org/uri/2009/osb"
   xmlns:dc="http://purl.org/dc/elements/1.1/"
   xmlns:cc="http://creativecommons.org/ns#"
   xmlns:rdf="http://www.w3.org/1999/02/22-rdf-syntax-ns#"
   xmlns:svg="http://www.w3.org/2000/svg"
   xmlns="http://www.w3.org/2000/svg"
   xmlns:sodipodi="http://sodipodi.sourceforge.net/DTD/sodipodi-0.dtd"
   xmlns:inkscape="http://www.inkscape.org/namespaces/inkscape"
   viewBox="0 0 150 150"
   version="1.1"
   id="svg38"
   sodipodi:docname="meteor3.svg"
   inkscape:version="1.0.1 (3bc2e813f5, 2020-09-07)">
  <metadata
     id="metadata44">
    <rdf:RDF>
      <cc:Work
         rdf:about="">
        <dc:format>image/svg+xml</dc:format>
        <dc:type
           rdf:resource="http://purl.org/dc/dcmitype/StillImage" />
        <dc:title></dc:title>
      </cc:Work>
    </rdf:RDF>
  </metadata>
  <defs
     id="defs42">
    <linearGradient
       id="linearGradient2847"
       osb:paint="solid">
      <stop
         style="stop-color:#f5b800;stop-opacity:1;"
         offset="0"
         id="stop2845" />
    </linearGradient>
  </defs>
  <sodipodi:namedview
     pagecolor="#ffffff"
     bordercolor="#666666"
     borderopacity="1"
     objecttolerance="10"
     gridtolerance="10"
     guidetolerance="10"
     inkscape:pageopacity="0"
     inkscape:pageshadow="2"
     inkscape:window-width="1450"
     inkscape:window-height="778"
     id="namedview40"
     showgrid="false"
     inkscape:zoom="2.8333333"
     inkscape:cx="78.089231"
     inkscape:cy="78.684402"
     inkscape:window-x="0"
     inkscape:window-y="40"
     inkscape:window-maximized="0"
     inkscape:current-layer="svg38"
     inkscape:document-rotation="0" />
  <path
     d="M 23.824 27.228 C 17.508 31.439 18.35 31.06 14.542 38.676 C 11.033 45.694 17.636 53.796 17.636 60.644 C 17.636 69.692 9.591 69.187 9.591 78.589 C 9.591 82.77 4.176 96.224 6.188 100.248 C 7.92 103.712 15.664 100.325 16.708 102.413 C 18.583 106.163 18.317 110.891 20.111 114.48 C 22.082 118.422 22.903 121.448 25.99 123.763 C 27.068 124.572 36.08 124.66 37.438 125 C 44.792 126.839 51.413 133.833 59.096 132.735 C 62.936 132.187 73.819 123.698 77.661 125.619 C 82.961 128.269 88.686 130.531 93.441 132.116 C 97.798 133.569 103.696 131.52 107.983 133.663 C 110.699 135.021 117.105 138.772 120.978 136.448 C 129.946 131.067 121.937 122.633 127.166 114.789 C 128.015 113.516 145.809 103.111 143.564 100.866 C 139.552 96.854 141.121 92.536 142.326 85.705 C 143.164 80.96 139.602 73.15 141.089 68.688 C 142.052 65.799 145.345 62.185 146.04 59.406 C 146.389 58.008 144.644 53.285 144.183 51.671 C 142.509 45.812 144.26 35.934 135.52 34.963 C 131.49 34.515 127.84 26.693 123.453 28.156 C 121.866 28.685 119.001 20.361 117.265 19.493 C 115.741 18.731 109.708 20.599 107.673 18.564 C 104.475 15.366 99.099 14.432 94.988 12.376 C 87.448 8.606 87.101 21.002 81.064 19.493 C 77.851 18.69 70.537 11.411 67.76 10.21 C 48.284 1.79 51.762 12.067 43.007 12.067 C 40.482 12.067 31.256 12.061 29.703 13.614 C 29.355 13.962 35.425 21.815 32.488 24.752 C 31.669 25.571 24.896 27.228 23.515 27.228"
     style="fill:#ffd42a;fill-opacity:1"
     id="path28" />
  <path
     d="M 65.594 121.906 C 75.948 118.8 63.867 112.656 72.401 114.79 C 75.004 115.44 76.233 120.728 78.589 121.906 C 80.173 122.698 91.981 126.49 94.434 126.98 C 101.982 128.49 106.016 131.776 112.048 129.765 C 114.632 128.903 117.047 126.947 118.194 128.094 C 121.098 130.999 121.702 113.756 123.453 112.005 C 124.06 111.398 128.403 110.67 128.403 109.53 C 128.403 105.868 131.905 105.002 133.973 100.866 C 135.615 97.581 132.26 101.463 129.022 94.988 C 126.961 90.866 121.969 93.068 121.597 93.441 C 121.417 93.62 118.249 93.552 118.193 93.441 C 117.121 91.296 124.483 83.641 123.144 82.302 C 122.37 81.528 119.276 83.076 118.502 82.302 C 117.413 81.212 119.172 77.093 118.193 76.114 C 117.799 75.719 111.911 75.993 111.696 76.423 C 109.823 80.167 106.412 98.8 101.675 101.169 C 98.89 102.561 89.282 98.165 85.49 99.429 C 83.544 100.078 74.045 91.651 72.783 92.913 C 69.864 95.832 68.17 95.092 64.666 96.844 C 56.772 100.791 39.411 91.158 32.797 97.772 C 32.361 98.208 33.578 102.649 33.725 102.723 C 37.628 104.674 37.276 107.968 39.295 112.005 C 39.634 112.685 46.084 114.153 47.03 115.099 C 48.021 116.09 49.439 122.646 50.433 123.144 C 52.871 124.363 54.098 120.494 55.693 119.431 C 62.635 114.803 70.026 126.957 65.285 122.216"
     style="fill:#aa8800;fill-opacity:0.73493975"
     id="path30" />
  <path
     d="M 20.421 68.998 C 20.421 63.608 18.056 51.648 19.493 47.339 C 23.273 35.999 22.662 32.722 36.201 26.609 C 44.489 22.867 55.329 19.738 63.738 17.636 C 64.772 17.378 68.875 16.586 69.616 17.327 C 71.704 19.414 73.884 24.411 77.661 26.3 C 81.206 28.072 84.226 22.862 86.634 21.658 C 91.306 19.322 99.854 16.573 103.181 23.227 C 106.687 30.239 106.048 23.863 102.413 25.681 C 101.609 26.083 103.102 30.561 102.413 31.25 C 101.043 32.62 97.721 34.086 96.225 35.582 C 92.324 39.483 94.646 45.824 90.965 49.505 C 90.624 49.846 81.551 46.779 80.446 46.411 C 78.631 45.806 74.752 28.95 73.322 30.38 C 72.524 31.178 63.438 31.014 62.452 31.999 C 60.114 34.338 47.397 34.107 44.915 36.59 C 39.529 41.975 36.398 35.358 31.872 39.884 C 29.658 42.098 27.959 51.333 26.016 53.276 C 23.349 55.943 22.067 74.534 18.255 75.804 C 16.93 76.246 17.327 84.468 17.327 84.468 C 17.327 84.468 14.674 82.257 13.923 80.755 C 10.299 73.506 13.806 69.616 19.802 69.616"
     style="fill:#d4aa00;fill-opacity:0.99598396"
     id="path32" />
  <path
     d="M 136.381 44.245 C 133.246 46.205 119.138 49.254 118.126 52.29 C 117.972 52.752 119.364 55.595 119.364 57.55 C 119.364 58.305 117.763 64.794 118.745 65.285 C 120.908 66.366 125.923 65.678 127.314 67.068 C 128.391 68.146 128.035 70.243 128.955 71.163 C 129.892 72.1 136.932 85.155 137.309 84.777 C 138 84.087 138.12 77.234 137.619 76.733 C 132.12 71.234 138.335 59.609 131.121 56.002 C 129.276 55.08 133.912 52.897 134.834 51.052 C 136.779 47.162 136.072 48.045 136.072 43.626"
     style="fill:#a58500;fill-opacity:0.83809525"
     id="path34" />
  <path
     d="M 37.878 74.275 C 32.135 68.532 35.522 60.113 40.32 54.274 C 44.49 49.199 49.378 46.422 54.645 44.666 C 61.989 42.218 61.691 38.78 64.634 44.666 C 66.367 48.134 66.211 46.957 68.201 48.947 C 72.936 53.682 72.606 51.193 71.411 53.584 C 70.852 54.703 70.942 58.497 69.627 58.936 C 66.337 60.032 70.902 64.028 69.27 68.925 C 67.794 73.353 69.666 75.683 65.347 77.842 C 62.088 79.471 50.627 76.819 45.726 79.269 C 44.928 79.668 40.931 100.515 32.884 92.468 C 30.822 90.406 28.497 87.599 25.392 86.047 C 22.91 84.806 29.494 82.302 31.457 80.339 C 34.654 77.142 37.878 78.366 37.878 75.345"
     style="fill:#d4aa00;stroke:none;fill-opacity:0.74698794"
     id="path36" />
  <path
     sodipodi:type="star"
     style="fill:#ffeeaa"
     id="path859"
     sodipodi:sides="4"
     sodipodi:cx="43.058827"
     sodipodi:cy="13.764708"
     sodipodi:r1="5.0901899"
     sodipodi:r2="2.545095"
     sodipodi:arg1="0.98279372"
     sodipodi:arg2="1.7681919"
     inkscape:flatsided="false"
     inkscape:rounded="0"
     inkscape:randomized="0"
     d="m 45.882356,18.000002 -3.322664,-1.739623 -3.73616,0.327858 1.739624,-3.322664 -0.327859,-3.7361595 3.322664,1.7396235 3.736159,-0.327859 -1.739623,3.322664 z" />
  <path
     sodipodi:type="star"
     style="fill:#ffeeaa"
     id="path859-9"
     sodipodi:sides="4"
     sodipodi:cx="39.529411"
     sodipodi:cy="120.70588"
     sodipodi:r1="5.0901899"
     sodipodi:r2="2.545095"
     sodipodi:arg1="0.98279372"
     sodipodi:arg2="1.7681919"
     inkscape:flatsided="false"
     inkscape:rounded="0"
     inkscape:randomized="0"
     d="m 42.352941,124.94117 -3.322664,-1.73962 -3.73616,0.32786 1.739623,-3.32267 -0.327858,-3.73615 3.322664,1.73962 3.736159,-0.32786 -1.739623,3.32266 z" />
  <path
     sodipodi:type="star"
     style="fill:#ffeeaa"
     id="path859-5"
     sodipodi:sides="4"
     sodipodi:cx="29.294117"
     sodipodi:cy="52.235296"
     sodipodi:r1="5.0901899"
     sodipodi:r2="2.545095"
     sodipodi:arg1="0.98279372"
     sodipodi:arg2="1.7681919"
     inkscape:flatsided="false"
     inkscape:rounded="0"
     inkscape:randomized="0"
     d="M 32.117646,56.470588 28.794983,54.730965 25.058823,55.058824 26.798446,51.73616 26.470588,48 l 3.322663,1.739623 3.73616,-0.327858 -1.739623,3.322664 z" />
  <path
     sodipodi:type="star"
     style="fill:#ffeeaa"
     id="path902"
     sodipodi:sides="4"
     sodipodi:cx="117.52941"
     sodipodi:cy="72.352943"
     sodipodi:r1="4.9032154"
     sodipodi:r2="2.4516077"
     sodipodi:arg1="2.0988708"
     sodipodi:arg2="2.8842689"
     inkscape:flatsided="false"
     inkscape:rounded="0"
     inkscape:randomized="0"
     d="m 115.05882,76.588237 0.0997,-3.611376 -1.8644,-3.094506 3.61137,0.0997 3.09451,-1.864407 -0.0997,3.611377 1.86441,3.094506 -3.61138,-0.0997 z" />
  <path
     sodipodi:type="star"
     style="fill:#ffeeaa"
     id="path904"
     sodipodi:sides="4"
     sodipodi:cx="117.52941"
     sodipodi:cy="33.176471"
     sodipodi:r1="4.4643922"
     sodipodi:r2="2.2321961"
     sodipodi:arg1="1.2490458"
     sodipodi:arg2="2.0344439"
     inkscape:flatsided="false"
     inkscape:rounded="0"
     inkscape:randomized="0"
     d="m 118.94118,37.411766 -2.41004,-2.238757 -3.23702,-0.584773 2.23875,-2.410033 0.58478,-3.237026 2.41003,2.238758 3.23703,0.584772 -2.23876,2.410033 z" />
  <path
     sodipodi:type="star"
     style="fill:#ffeeaa"
     id="path906"
     sodipodi:sides="4"
     sodipodi:cx="94.235296"
     sodipodi:cy="81.882354"
     sodipodi:r1="6.7429318"
     sodipodi:r2="3.3714659"
     sodipodi:arg1="3.0367157"
     sodipodi:arg2="3.8221139"
     inkscape:flatsided="false"
     inkscape:rounded="0"
     inkscape:randomized="0"
     d="m 87.529416,82.588237 4.085428,-2.827203 1.914572,-4.584562 2.827203,4.085428 4.584561,1.914572 -4.085427,2.827203 -1.914572,4.584562 -2.827203,-4.085428 z" />
  <path
     sodipodi:type="star"
     style="fill:#ffeeaa"
     id="path908"
     sodipodi:sides="4"
     sodipodi:cx="71.64706"
     sodipodi:cy="38.470588"
     sodipodi:r1="6.0103717"
     sodipodi:r2="3.0051858"
     sodipodi:arg1="0.70225693"
     sodipodi:arg2="1.4876551"
     inkscape:flatsided="false"
     inkscape:rounded="0"
     inkscape:randomized="0"
     d="m 76.235292,42.352942 -4.338668,-0.887548 -4.13192,1.59343 0.887547,-4.338668 -1.59343,-4.13192 4.338668,0.887547 4.131921,-1.59343 -0.887548,4.338669 z" />
</svg>
