<svg version="1.1" xmlns="http://www.w3.org/2000/svg" xmlns:xlink="http://www.w3.org/1999/xlink" width="184.579" height="284.82002" viewBox="0,0,184.579,284.82002"><defs><radialGradient cx="306.89719" cy="280.97357" r="52.40223" gradientUnits="userSpaceOnUse" id="color-1"><stop offset="0" stop-color="#87f2e7"/><stop offset="1" stop-color="#87f2e7" stop-opacity="0"/></radialGradient><linearGradient x1="237.63382" y1="221.11747" x2="237.63382" y2="311.78553" gradientUnits="userSpaceOnUse" id="color-2"><stop offset="0" stop-color="#00e2cc"/><stop offset="1" stop-color="#ffffff"/></linearGradient><linearGradient x1="236.89684" y1="228.76529" x2="236.89684" y2="346.35306" gradientUnits="userSpaceOnUse" id="color-3"><stop offset="0" stop-color="#00e2cc"/><stop offset="1" stop-color="#ffffff"/></linearGradient><linearGradient x1="237.63767" y1="231.22347" x2="237.63767" y2="281.73267" gradientUnits="userSpaceOnUse" id="color-4"><stop offset="0" stop-color="#00e2cc"/><stop offset="1" stop-color="#ffffff"/></linearGradient><linearGradient x1="238.55925" y1="110.04674" x2="238.55925" y2="134.27503" gradientUnits="userSpaceOnUse" id="color-5"><stop offset="0" stop-color="#ffffff"/><stop offset="1" stop-color="#00e2cc"/></linearGradient><linearGradient x1="212.07985" y1="147.87927" x2="212.07985" y2="194.51661" gradientUnits="userSpaceOnUse" id="color-6"><stop offset="0" stop-color="#ffffff"/><stop offset="1" stop-color="#00e2cc"/></linearGradient><linearGradient x1="264.53852" y1="147.06175" x2="264.53852" y2="193.69909" gradientUnits="userSpaceOnUse" id="color-7"><stop offset="0" stop-color="#ffffff"/><stop offset="1" stop-color="#00e2cc"/></linearGradient><radialGradient cx="158.75006" cy="283.75568" r="54.83657" gradientUnits="userSpaceOnUse" id="color-8"><stop offset="0" stop-color="#87f2e7"/><stop offset="1" stop-color="#87f2e7" stop-opacity="0"/></radialGradient><radialGradient cx="238.05504" cy="71.30562" r="8.72735" gradientUnits="userSpaceOnUse" id="color-9"><stop offset="0" stop-color="#4eebdc"/><stop offset="1" stop-color="#4eebdc" stop-opacity="0"/></radialGradient></defs><g transform="translate(-146.09834,-62.57827)"><g data-paper-data="{&quot;isPaintingLayer&quot;:true}" fill-rule="nonzero" stroke="#000000" stroke-linecap="butt" stroke-linejoin="miter" stroke-miterlimit="10" stroke-dasharray="" stroke-dashoffset="0" style="mix-blend-mode: normal"><path d="M237.03922,75.2633l1.61969,-0.01216l1.50736,5.97527v34.10837h-4.34458v-34.10837z" data-paper-data="{&quot;index&quot;:null}" fill="#b1b1b1" stroke-width="0.5"/><path d="M301.614,239.63673v-34.5989h16.53399v34.5989l-5.73649,6.06121l-6.16397,-0.01234z" fill="#b1b1b1" stroke-width="0.5"/><path d="M297.84287,288.56383c0,-28.94096 5.24451,-52.40221 11.71393,-52.40221c6.46943,0 11.71393,23.46129 11.71393,52.40221c0,28.94096 -5.24451,52.40225 -11.71393,52.40225c-6.46943,0 -11.71393,-23.46129 -11.71393,-52.40225z" fill="url(#color-1)" stroke-width="0"/><path d="M154.32614,241.20026v-34.5989h16.53399v34.5989l-5.7365,6.06121l-6.16397,-0.01234z" fill="#b1b1b1" stroke-width="0.5"/><path d="M268.2548,212.21373v-22.04532c0,0 40.55717,-1.04897 46.23393,0c5.67676,1.04897 15.61543,6.96231 15.61543,10.41029c0,3.85496 2.05505,7.98569 -15.61543,11.63503c-17.67048,3.64934 -46.23392,0 -46.23392,0z" data-paper-data="{&quot;index&quot;:null}" fill="#b1b1b1" stroke-width="1"/><path d="M162.28695,211.8065c-17.67048,-3.64934 -15.61543,-7.78006 -15.61543,-11.63502c0,-3.44798 9.93867,-9.36132 15.61543,-10.41029c5.67676,-1.04897 46.23393,0 46.23393,0v22.04531c0,0 -28.56344,3.64934 -46.23392,0z" fill="#b1b1b1" stroke-width="1"/><path d="M283.77558,221.65853c0,0 -20.51478,90.127 -46.04926,90.127c-25.53448,0 -46.23427,-90.127 -46.23427,-90.127l3.62162,-0.54107c0,0 24.29258,71.55023 43.3897,71.55023c17.71374,0 40.26164,-69.72089 40.26164,-69.72089z" fill="url(#color-2)" stroke-width="2"/><path d="M282.5973,229.46702c0,0 -20.31857,116.88603 -45.60884,116.88603c-25.29027,0 -45.79208,-116.88603 -45.79208,-116.88603l3.58697,-0.70173c0,0 24.06024,92.79375 42.97472,92.79375c17.54432,0 39.87657,-90.42126 39.87657,-90.42126z" fill="url(#color-3)" stroke-width="2"/><path d="M287.88521,231.5249c0,0 -22.34021,50.20778 -50.1468,50.20778c-27.80658,0 -50.34827,-50.20778 -50.34827,-50.20778l3.94387,-0.30142c0,0 26.45417,39.85907 47.25059,39.85907c19.28993,0 43.84419,-38.83998 43.84419,-38.83998z" fill="url(#color-4)" stroke-width="2"/><path d="M187,233.50001c0,0 32.36545,-136 51,-136c20.79471,0 50,135 50,135z" fill="#b1b1b1" stroke-width="2"/><path d="M260.00619,134.02957l-3.8064,0.24546c0,0 -10.2081,-17.11528 -17.52117,-17.16734c-7.23147,-0.05147 -17.63189,16.72642 -17.63189,16.72642l-3.93442,-0.10988c0,0 9.77176,-23.76158 21.61658,-23.67726c11.84482,0.08432 21.2773,23.9826 21.2773,23.9826z" fill="url(#color-5)" stroke-width="0"/><path d="M215.30225,147.89924l6.4106,-0.01996l-10.03739,40.73484l-9.22861,5.90249z" fill="url(#color-6)" stroke-width="0"/><path d="M274.17152,193.69909l-9.22861,-5.90249l-10.03739,-40.73484l6.41059,0.01996z" data-paper-data="{&quot;index&quot;:null}" fill="url(#color-7)" stroke-width="0"/><path d="M150.55502,292.56172c0,-30.28542 5.24451,-54.83657 11.71393,-54.83657c6.46943,0 11.71394,24.55119 11.71394,54.83657c0,30.28542 -5.24451,54.83657 -11.71394,54.83657c-6.46943,0 -11.71393,-24.55119 -11.71393,-54.83657z" fill="url(#color-8)" stroke-width="0"/><path d="M229.32769,71.30562c0,-4.81999 3.90736,-8.72735 8.72735,-8.72735c4.81999,0 8.72735,3.90736 8.72735,8.72735c0,4.81999 -3.90736,8.72735 -8.72735,8.72735c-4.81999,0 -8.72735,-3.90736 -8.72735,-8.72735z" fill="url(#color-9)" stroke-width="0"/></g></g></svg>